<mxfile host="Electron" modified="2024-06-19T08:45:06.212Z" agent="Mozilla/5.0 (Windows NT 10.0; Win64; x64) AppleWebKit/537.36 (KHTML, like Gecko) draw.io/24.4.13 Chrome/124.0.6367.207 Electron/30.0.6 Safari/537.36" etag="MVr_Sp_-nNjYzK_DdcfJ" version="24.4.13" type="device">
  <diagram id="C5RBs43oDa-KdzZeNtuy" name="Page-1">
    <mxGraphModel dx="1260" dy="767" grid="1" gridSize="10" guides="1" tooltips="1" connect="1" arrows="1" fold="1" page="1" pageScale="1" pageWidth="827" pageHeight="1169" math="0" shadow="0">
      <root>
        <mxCell id="WIyWlLk6GJQsqaUBKTNV-0" />
        <mxCell id="WIyWlLk6GJQsqaUBKTNV-1" parent="WIyWlLk6GJQsqaUBKTNV-0" />
        <mxCell id="Ml6D7E--4obYq7OwAbI7-22" style="edgeStyle=orthogonalEdgeStyle;rounded=0;orthogonalLoop=1;jettySize=auto;html=1;exitX=1;exitY=0.5;exitDx=0;exitDy=0;entryX=0;entryY=0.5;entryDx=0;entryDy=0;" edge="1" parent="WIyWlLk6GJQsqaUBKTNV-1" source="WIyWlLk6GJQsqaUBKTNV-3" target="Ml6D7E--4obYq7OwAbI7-14">
          <mxGeometry relative="1" as="geometry" />
        </mxCell>
        <mxCell id="WIyWlLk6GJQsqaUBKTNV-3" value="User Story:&lt;div&gt;Who, What, Why&lt;/div&gt;&lt;div&gt;DoD (General)&lt;/div&gt;&lt;div&gt;Acceptance Criteria&lt;/div&gt;" style="rounded=1;whiteSpace=wrap;html=1;fontSize=12;glass=0;strokeWidth=1;shadow=0;" parent="WIyWlLk6GJQsqaUBKTNV-1" vertex="1">
          <mxGeometry x="40" y="100" width="120" height="70" as="geometry" />
        </mxCell>
        <mxCell id="Ml6D7E--4obYq7OwAbI7-0" value="PO" style="shape=umlActor;verticalLabelPosition=bottom;verticalAlign=top;html=1;outlineConnect=0;" vertex="1" parent="WIyWlLk6GJQsqaUBKTNV-1">
          <mxGeometry x="90" y="10" width="30" height="60" as="geometry" />
        </mxCell>
        <mxCell id="Ml6D7E--4obYq7OwAbI7-4" value="System Architect" style="shape=umlActor;verticalLabelPosition=bottom;verticalAlign=top;html=1;outlineConnect=0;" vertex="1" parent="WIyWlLk6GJQsqaUBKTNV-1">
          <mxGeometry x="310" y="10" width="30" height="60" as="geometry" />
        </mxCell>
        <mxCell id="Ml6D7E--4obYq7OwAbI7-9" value="Developer" style="shape=umlActor;verticalLabelPosition=bottom;verticalAlign=top;html=1;outlineConnect=0;" vertex="1" parent="WIyWlLk6GJQsqaUBKTNV-1">
          <mxGeometry x="500" y="10" width="30" height="60" as="geometry" />
        </mxCell>
        <mxCell id="Ml6D7E--4obYq7OwAbI7-10" value="Programmer" style="shape=umlActor;verticalLabelPosition=bottom;verticalAlign=top;html=1;outlineConnect=0;" vertex="1" parent="WIyWlLk6GJQsqaUBKTNV-1">
          <mxGeometry x="680" y="10" width="30" height="60" as="geometry" />
        </mxCell>
        <mxCell id="Ml6D7E--4obYq7OwAbI7-11" value="QA" style="shape=umlActor;verticalLabelPosition=bottom;verticalAlign=top;html=1;outlineConnect=0;" vertex="1" parent="WIyWlLk6GJQsqaUBKTNV-1">
          <mxGeometry x="830" y="10" width="30" height="60" as="geometry" />
        </mxCell>
        <mxCell id="Ml6D7E--4obYq7OwAbI7-18" value="" style="edgeStyle=orthogonalEdgeStyle;rounded=0;orthogonalLoop=1;jettySize=auto;html=1;exitX=1;exitY=0.5;exitDx=0;exitDy=0;entryX=0.5;entryY=0;entryDx=0;entryDy=0;" edge="1" parent="WIyWlLk6GJQsqaUBKTNV-1" source="Ml6D7E--4obYq7OwAbI7-14" target="Ml6D7E--4obYq7OwAbI7-17">
          <mxGeometry relative="1" as="geometry">
            <Array as="points">
              <mxPoint x="395" y="135" />
              <mxPoint x="395" y="250" />
              <mxPoint x="325" y="250" />
            </Array>
          </mxGeometry>
        </mxCell>
        <mxCell id="Ml6D7E--4obYq7OwAbI7-23" value="Yes" style="edgeLabel;html=1;align=center;verticalAlign=middle;resizable=0;points=[];" vertex="1" connectable="0" parent="Ml6D7E--4obYq7OwAbI7-18">
          <mxGeometry x="-0.4341" y="5" relative="1" as="geometry">
            <mxPoint as="offset" />
          </mxGeometry>
        </mxCell>
        <mxCell id="Ml6D7E--4obYq7OwAbI7-20" value="No" style="edgeStyle=orthogonalEdgeStyle;rounded=0;orthogonalLoop=1;jettySize=auto;html=1;exitX=0.5;exitY=1;exitDx=0;exitDy=0;entryX=0.5;entryY=0;entryDx=0;entryDy=0;" edge="1" parent="WIyWlLk6GJQsqaUBKTNV-1" source="Ml6D7E--4obYq7OwAbI7-14" target="Ml6D7E--4obYq7OwAbI7-19">
          <mxGeometry relative="1" as="geometry" />
        </mxCell>
        <mxCell id="Ml6D7E--4obYq7OwAbI7-14" value="Story, DoC, and Acceptance Criteria is clear" style="rhombus;whiteSpace=wrap;html=1;shadow=0;fontFamily=Helvetica;fontSize=12;align=center;strokeWidth=1;spacing=6;spacingTop=-4;" vertex="1" parent="WIyWlLk6GJQsqaUBKTNV-1">
          <mxGeometry x="275" y="95" width="100" height="80" as="geometry" />
        </mxCell>
        <mxCell id="Ml6D7E--4obYq7OwAbI7-27" style="edgeStyle=orthogonalEdgeStyle;rounded=0;orthogonalLoop=1;jettySize=auto;html=1;exitX=1;exitY=0.5;exitDx=0;exitDy=0;entryX=0;entryY=0.75;entryDx=0;entryDy=0;" edge="1" parent="WIyWlLk6GJQsqaUBKTNV-1" source="Ml6D7E--4obYq7OwAbI7-15" target="Ml6D7E--4obYq7OwAbI7-16">
          <mxGeometry relative="1" as="geometry" />
        </mxCell>
        <mxCell id="Ml6D7E--4obYq7OwAbI7-15" value="Adds Architecture Design" style="rounded=1;whiteSpace=wrap;html=1;fontSize=12;glass=0;strokeWidth=1;shadow=0;" vertex="1" parent="WIyWlLk6GJQsqaUBKTNV-1">
          <mxGeometry x="265" y="371" width="120" height="40" as="geometry" />
        </mxCell>
        <mxCell id="Ml6D7E--4obYq7OwAbI7-30" style="edgeStyle=orthogonalEdgeStyle;rounded=0;orthogonalLoop=1;jettySize=auto;html=1;exitX=1;exitY=0.5;exitDx=0;exitDy=0;entryX=0;entryY=0.5;entryDx=0;entryDy=0;" edge="1" parent="WIyWlLk6GJQsqaUBKTNV-1" source="Ml6D7E--4obYq7OwAbI7-16" target="Ml6D7E--4obYq7OwAbI7-28">
          <mxGeometry relative="1" as="geometry" />
        </mxCell>
        <mxCell id="Ml6D7E--4obYq7OwAbI7-16" value="User Story:&lt;div&gt;Who, What, Why&lt;/div&gt;&lt;div&gt;DoD (General)&lt;/div&gt;&lt;div&gt;Acceptance Criteria&lt;/div&gt;&lt;div&gt;Architecture Design&lt;/div&gt;&lt;div&gt;Wokrflow Breakdown&lt;/div&gt;&lt;div&gt;Task Breakdown&lt;/div&gt;&lt;div&gt;Task Flow (Psedo Code)&lt;/div&gt;" style="rounded=1;whiteSpace=wrap;html=1;fontSize=12;glass=0;strokeWidth=1;shadow=0;" vertex="1" parent="WIyWlLk6GJQsqaUBKTNV-1">
          <mxGeometry x="455" y="100" width="120" height="150" as="geometry" />
        </mxCell>
        <mxCell id="Ml6D7E--4obYq7OwAbI7-25" style="edgeStyle=orthogonalEdgeStyle;rounded=0;orthogonalLoop=1;jettySize=auto;html=1;exitX=0.5;exitY=1;exitDx=0;exitDy=0;entryX=0.5;entryY=0;entryDx=0;entryDy=0;" edge="1" parent="WIyWlLk6GJQsqaUBKTNV-1" source="Ml6D7E--4obYq7OwAbI7-17" target="Ml6D7E--4obYq7OwAbI7-15">
          <mxGeometry relative="1" as="geometry" />
        </mxCell>
        <mxCell id="Ml6D7E--4obYq7OwAbI7-26" style="edgeStyle=orthogonalEdgeStyle;rounded=0;orthogonalLoop=1;jettySize=auto;html=1;exitX=1;exitY=0.5;exitDx=0;exitDy=0;entryX=0;entryY=0.5;entryDx=0;entryDy=0;" edge="1" parent="WIyWlLk6GJQsqaUBKTNV-1" source="Ml6D7E--4obYq7OwAbI7-17" target="Ml6D7E--4obYq7OwAbI7-16">
          <mxGeometry relative="1" as="geometry" />
        </mxCell>
        <mxCell id="Ml6D7E--4obYq7OwAbI7-17" value="Need Architecture Review?" style="rhombus;whiteSpace=wrap;html=1;shadow=0;fontFamily=Helvetica;fontSize=12;align=center;strokeWidth=1;spacing=6;spacingTop=-4;" vertex="1" parent="WIyWlLk6GJQsqaUBKTNV-1">
          <mxGeometry x="275" y="265" width="100" height="80" as="geometry" />
        </mxCell>
        <mxCell id="Ml6D7E--4obYq7OwAbI7-21" style="edgeStyle=orthogonalEdgeStyle;rounded=0;orthogonalLoop=1;jettySize=auto;html=1;exitX=0;exitY=0.5;exitDx=0;exitDy=0;entryX=0.5;entryY=1;entryDx=0;entryDy=0;" edge="1" parent="WIyWlLk6GJQsqaUBKTNV-1" source="Ml6D7E--4obYq7OwAbI7-19" target="WIyWlLk6GJQsqaUBKTNV-3">
          <mxGeometry relative="1" as="geometry" />
        </mxCell>
        <mxCell id="Ml6D7E--4obYq7OwAbI7-19" value="Commenting missing items" style="rounded=1;whiteSpace=wrap;html=1;fontSize=12;glass=0;strokeWidth=1;shadow=0;" vertex="1" parent="WIyWlLk6GJQsqaUBKTNV-1">
          <mxGeometry x="265" y="201" width="120" height="40" as="geometry" />
        </mxCell>
        <mxCell id="Ml6D7E--4obYq7OwAbI7-31" value="" style="edgeStyle=orthogonalEdgeStyle;rounded=0;orthogonalLoop=1;jettySize=auto;html=1;" edge="1" parent="WIyWlLk6GJQsqaUBKTNV-1" source="Ml6D7E--4obYq7OwAbI7-28" target="Ml6D7E--4obYq7OwAbI7-29">
          <mxGeometry relative="1" as="geometry" />
        </mxCell>
        <mxCell id="Ml6D7E--4obYq7OwAbI7-28" value="B.D.D. Test&lt;div&gt;Code&lt;/div&gt;" style="rounded=1;whiteSpace=wrap;html=1;fontSize=12;glass=0;strokeWidth=1;shadow=0;" vertex="1" parent="WIyWlLk6GJQsqaUBKTNV-1">
          <mxGeometry x="646" y="100" width="100" height="60" as="geometry" />
        </mxCell>
        <mxCell id="Ml6D7E--4obYq7OwAbI7-29" value="Code Review&lt;div&gt;Merge&lt;/div&gt;" style="rounded=1;whiteSpace=wrap;html=1;fontSize=12;glass=0;strokeWidth=1;shadow=0;" vertex="1" parent="WIyWlLk6GJQsqaUBKTNV-1">
          <mxGeometry x="790" y="100" width="120" height="60" as="geometry" />
        </mxCell>
      </root>
    </mxGraphModel>
  </diagram>
</mxfile>
